<svg id="Layer_1" data-name="Layer 1" xmlns="http://www.w3.org/2000/svg" viewBox="0 0 1882.2 866.43"><defs><style>.cls-1{fill:#e5a136;}.cls-2{fill:#348b92;}.cls-3{fill:#17343c;}.cls-4{fill:#fff;}.cls-5{fill:#fffefb;}.cls-6{fill:#ffdb36;}.cls-7{fill:#961819;}.cls-8{fill:#f9f6ef;}.cls-9{fill:#bd2427;}</style></defs><title>Logo Export</title><rect class="cls-1" x="7844.93" y="6788.89" width="275.71" height="170.82" transform="translate(-7898.14 -4117.95) rotate(-16.73)"/><polygon class="cls-2" points="440.37 67.13 607.7 792.52 1591.6 866.43 1691.83 172.64 440.37 67.13"/><rect class="cls-3" x="6438.18" y="6867.85" width="1601.14" height="277.22" transform="translate(-5496.41 -7415.71) rotate(5.92)"/><path class="cls-4" d="M6670.72,7022,6668,6866.52l46.7,4.84c-1.38,22.19-5,72.25-6.54,94.19l2.05.22c5.77-26.81,11-61.73,17.25-93.09l36.23,3.76c-.44,26.44-3,64.62-3.11,94.32l2.28.24c3.19-24.08,10.86-78.09,13.13-93.29l42.83,4.44-36.88,151.39-46.94-4.87c-.31-19.15-.29-39.41.1-69.76l-1.82-.19c-5.44,28-10.06,45.93-14.68,68.25Z" transform="translate(-6257.19 -6706.87)"/><path class="cls-4" d="M6928.46,6970.44c-5.69,54.91-22.71,79.16-65.09,74.77-39.64-4.11-50.71-32.89-45-87.57,5.32-51.26,22-76.71,63.24-72.43C6922.13,6889.42,6934,6917.36,6928.46,6970.44Zm-61.87-7.34c-4.54,43.74-4.15,48.85,1.78,49.47,6.15.63,7.38-4.54,11.89-48,4.32-41.69,4.06-45.86-2.09-46.5C6872.93,6917.48,6870.93,6921.18,6866.59,6963.1Z" transform="translate(-6257.19 -6706.87)"/><path class="cls-4" d="M6996,6900.53l-11.59,111.87c-.74,7.06-.37,12.4,5.33,13s6.67-4.38,7.43-11.67l11.59-111.86,45.57,4.72-11.17,107.77c-4,38.27-28.55,46.55-58.17,43.47-31.67-3.28-49-18-45.22-54.66l11.12-107.3Z" transform="translate(-6257.19 -6706.87)"/><path class="cls-4" d="M7071.46,6908.35l45.11,4.68L7104.24,7032l42.6,4.42-7.92,34.18-83.39-8.65Z" transform="translate(-6257.19 -6706.87)"/><path class="cls-4" d="M7168.51,6918.42l48.53,5c39.42,4.09,56,23.77,50.22,79.82-6.14,59.23-26.95,77.8-65.91,73.76l-48.76-5.05ZM7201,7045.21l2.28.24c9.8,1,11.07-4.61,15.65-48.81,3.83-36.91,2.41-41-6-41.84l-2.51-.26Z" transform="translate(-6257.19 -6706.87)"/><path class="cls-4" d="M7368.55,6939.16l-15.92,153.56-45.11-4.68,15.92-153.56Z" transform="translate(-6257.19 -6706.87)"/><rect class="cls-5" x="7428.03" y="6727.67" width="427.32" height="460.8" transform="translate(-5499.25 -7457.51) rotate(5.92)"/><path class="cls-3" d="M7479.49,6929.58l59.19,6.14-16.18,156.05,55.9,5.8L7568,7142.42l-109.42-11.35Z" transform="translate(-6257.19 -6706.87)"/><path class="cls-3" d="M7666,6948.92l-20.9,201.5-59.19-6.14,20.89-201.49Z" transform="translate(-6257.19 -6706.87)"/><path class="cls-3" d="M7790.13,7083.87l-55.31-5.74L7731,7114.6l63.38,6.57-11.16,43.57-114.5-11.88,20.89-201.49,115.4,12-4.62,44.54-57.7-6-3.29,31.69,55.31,5.73Z" transform="translate(-6257.19 -6706.87)"/><rect class="cls-6" y="409.74" width="746.5" height="226.85"/><path class="cls-3" d="M6744,7175l-29.43-3.05,4-38.13,108.75,11.28-3.95,38.12-28.92-3-13.93,134.34-50.41-5.23Z" transform="translate(-6257.19 -6706.87)"/><path class="cls-3" d="M6949.42,7244.17c-6.39,61.67-25.51,88.91-73.11,84-44.52-4.62-57-36.94-50.58-98.36,6-57.57,24.71-86.15,71-81.35C6942.31,7153.17,6955.61,7184.55,6949.42,7244.17Zm-69.5-8.24c-5.09,49.13-4.65,54.86,2,55.56,6.91.71,8.29-5.09,13.36-54,4.85-46.83,4.56-51.51-2.35-52.23C6887.05,7184.68,6884.81,7188.85,6879.92,7235.93Z" transform="translate(-6257.19 -6706.87)"/><polygon class="cls-7" points="0 636.59 746.5 636.59 746.5 652.42 0 752.66 0 636.59"/><path class="cls-4" d="M7080,7357.57l5.6-54a43.6,43.6,0,0,0-.35-13.26l-26-128.54,61.4,6.37c.81,28.24.84,58.41.91,85.42,3.67-16,12.92-55.26,19.27-83.33l56.86,5.9L7145,7296.78a31.91,31.91,0,0,0-2.36,8.95l-6,57.7Z" transform="translate(-6257.19 -6706.87)"/><path class="cls-4" d="M7324.3,7285.21c-7.11,68.5-28.34,98.77-81.22,93.29-49.46-5.13-63.26-41-56.19-109.26,6.63-64,27.45-95.71,78.9-90.37C7316.39,7184.12,7331.17,7219,7324.3,7285.21Zm-77.21-9.16c-5.65,54.58-5.17,60.95,2.23,61.72,7.67.79,9.2-5.66,14.83-60,5.4-52,5.07-57.22-2.6-58C7255,7219.12,7252.52,7223.75,7247.09,7276.05Z" transform="translate(-6257.19 -6706.87)"/><path class="cls-4" d="M7408.62,7198l-14.48,139.57c-.91,8.81-.45,15.47,6.66,16.2s8.32-5.46,9.26-14.55l14.48-139.57,56.85,5.89-14,134.46c-4.95,47.75-35.61,58.08-72.56,54.25-39.52-4.1-61.18-22.44-56.43-68.2l13.88-133.89Z" transform="translate(-6257.19 -6706.87)"/><rect class="cls-8" x="7541.25" y="7215.33" width="547.33" height="232.62" transform="translate(-5459.82 -7473.37) rotate(5.92)"/><path class="cls-9" d="M7599.32,7345.06l1.06-10.2c2.12-20.4,10.62-32.25,26.86-48.46,8.82-9.09,11.88-15.14,12.94-25.34.87-8.4-.65-11.29-5.15-11.75-5.7-.59-7.38,6.81-8.81,20.61l-52.2-5.41c3.83-31.14,19.3-57.43,69.4-52.23,46.2,4.79,58.41,30.31,55.48,58.51-2.27,21.9-10.64,29.52-25,45-12.72,14.45-15.8,20.8-16.77,30.1l-.53,5.1Zm-7.28,70.2,6.19-59.7,57.31,5.94-6.2,59.7Z" transform="translate(-6257.19 -6706.87)"/></svg>